<svg xmlns="http://www.w3.org/2000/svg" viewBox="0 0 128 128" role="img" aria-label="Full page screenshot extension icon">
  <defs>
    <linearGradient id="bg" x1="18" y1="14" x2="110" y2="118" gradientUnits="userSpaceOnUse">
      <stop offset="0" stop-color="#0ea5a4"/>
      <stop offset="1" stop-color="#155e75"/>
    </linearGradient>
    <filter id="softShadow" x="-20%" y="-20%" width="140%" height="150%">
      <feDropShadow dx="0" dy="5" stdDeviation="5" flood-color="#083344" flood-opacity=".28"/>
    </filter>
  </defs>

  <rect x="8" y="8" width="112" height="112" rx="24" fill="url(#bg)"/>

  <g filter="url(#softShadow)">
    <rect x="39" y="17" width="50" height="94" rx="8" fill="#f8fafc"/>
    <path d="M81 17v18h-18" fill="#dbeafe"/>
    <path d="M81 17v18h-18" fill="none" stroke="#93c5fd" stroke-width="3" stroke-linejoin="round"/>
    <rect x="48" y="45" width="32" height="5" rx="2.5" fill="#334155"/>
    <rect x="48" y="59" width="32" height="5" rx="2.5" fill="#64748b"/>
    <rect x="48" y="73" width="25" height="5" rx="2.5" fill="#64748b"/>
    <rect x="48" y="87" width="31" height="5" rx="2.5" fill="#94a3b8"/>
  </g>

  <path d="M30 31h17M30 31v17M98 31H81M98 31v17M30 97h17M30 97V80M98 97H81M98 97V80"
        fill="none" stroke="#facc15" stroke-width="8" stroke-linecap="round" stroke-linejoin="round"/>

  <path d="M64 27v68" fill="none" stroke="#14b8a6" stroke-width="5" stroke-linecap="round" stroke-dasharray="5 10"/>
  <path d="M52 85l12 14 12-14" fill="none" stroke="#14b8a6" stroke-width="8" stroke-linecap="round" stroke-linejoin="round"/>
</svg>
